<svg xmlns="http://www.w3.org/2000/svg" viewBox="0 0 512 512" fill="none">
  <!-- Outer dashed rings -->
  <circle cx="256" cy="256" r="220" stroke="#000000" stroke-width="16" stroke-dasharray="30 15" />
  <circle cx="256" cy="256" r="180" stroke="#000000" stroke-width="8" stroke-dasharray="10 10" />

  <!-- Core geometric neural network nodes -->
  <!-- Left nodes -->
  <circle cx="180" cy="180" r="16" fill="#000000" />
  <circle cx="140" cy="256" r="20" fill="#000000" />
  <circle cx="180" cy="332" r="16" fill="#000000" />
  
  <!-- Right nodes -->
  <circle cx="332" cy="180" r="16" fill="#000000" />
  <circle cx="372" cy="256" r="20" fill="#000000" />
  <circle cx="332" cy="332" r="16" fill="#000000" />

  <!-- Center/Top/Bottom nodes -->
  <circle cx="256" cy="256" r="28" fill="#000000" />
  <circle cx="256" cy="140" r="20" fill="#000000" />
  <circle cx="256" cy="372" r="20" fill="#000000" />

  <!-- Outer perimeter connections -->
  <path d="M256 140 L180 180 L140 256 L180 332 L256 372 L332 332 L372 256 L332 180 Z" stroke="#000000" stroke-width="6" stroke-linejoin="round" />
  
  <!-- Radial connections to center -->
  <path d="M256 256 L256 140 M256 256 L256 372 M256 256 L140 256 M256 256 L372 256 M256 256 L180 180 M256 256 L332 180 M256 256 L180 332 M256 256 L332 332" stroke="#000000" stroke-width="4" />
</svg>